<svg height="299" viewBox="0 0 208 299" width="208" xmlns="http://www.w3.org/2000/svg"><g fill="none" fill-rule="evenodd"><g transform="translate(104 1)"><path d="m103 69.405-34.333 34.595h-68.667v-69.19l34.547-34.81" stroke="#5f6368"/><path d="m69 70h34v-35h-34zm-34.5-35h35v-35h-35z" stroke="#202124"/></g><g transform="translate(1 214)"><g stroke-width=".75"><path d="m55 84h-55v-56" stroke="#5f6368"/><path d="m82 56-27 28m-55-56 27-28" stroke="#202124" stroke-dasharray="3 2.25"/><path d="m27 56h55v-56h-55z" stroke="#202124"/></g><path d="m45.105 42.21c3.515 3.195 19.045-3.922 24.91-10.306 5.864-6.384 2.128-15.905-2.968-19.375s-14.195-4.574-20.209 4.678c-5.078 7.814-4.534 22.458-1.733 25.004" fill="#3e82f7" fill-rule="nonzero"/></g></g></svg>